# xmcd
#
# Track frame offsets:
#	150
#	16271
#	33966
#	41224
#	59853
#
# Disc length: 1026 seconds
#
# Revision: 1
# Processed by: cddbd v1.5.1PL0 Copyright (c) Steve Scherf et al.
# Submitted via: audiograbber 1.83.01
#
DISCID=40040005
DTITLE=Blue House - A Little Bit Live
DYEAR=1997
DGENRE=
TTITLE0=It Doesn't Matter
TTITLE1=Lonely Girl
TTITLE2=It
TTITLE3=Last Name
TTITLE4=Love's A Game
EXTD=
EXTT0=
EXTT1=
EXTT2=
EXTT3=
EXTT4=
PLAYORDER=
